PathFileType	4	(X/Y/Z)	./resultDataOpenSim/trcMotMarkerGrf/sub09/qtm-13-07.trc
DataRate	CameraRate	NumFrames	NumMarkers	Units	OrigDataRate	OrigDataStartFrame	OrigNumFrames
250.000000	250.000000	10	24	m	250.000000	182	483
Frame#	Time	L.Toe.Tip			R.Toe.Tip			L.Ankle.Lat			R.Ankle.Lat			L.Ankle.Med			R.Ankle.Med			L.Heel			R.Heel			L.Knee.Lat			R.Knee.Lat			L.Knee.Med			R.Knee.Med			L.Thigh.Upper			R.Thigh.Upper			L.ASIS			R.ASIS			V.Sacral			L.Acromium			R.Acromium			C7			L.Elbow			R.Elbow			L.Wrist.Lat			R.Wrist.Lat
		X1	Y1	Z1	X2	Y2	Z2	X3	Y3	Z3	X4	Y4	Z4	X5	Y5	Z5	X6	Y6	Z6	X7	Y7	Z7	X8	Y8	Z8	X9	Y9	Z9	X10	Y10	Z10	X11	Y11	Z11	X12	Y12	Z12	X13	Y13	Z13	X14	Y14	Z14	X15	Y15	Z15	X16	Y16	Z16	X17	Y17	Z17	X18	Y18	Z18	X19	Y19	Z19	X20	Y20	Z20	X21	Y21	Z21	X22	Y22	Z22	X23	Y23	Z23	X24	Y24	Z24

182	0.724	0.16934267	-0.0093857034	-0.010690848	-0.61601701	0.060380137	0.089250853	0.020316231	0.023511451	-0.054380457	-0.67126114	0.20359455	0.1158327	0.037722032	0.04513249	0.040555587	-0.61536173	0.19855861	0.033973385	-0.051264879	-0.012056836	-0.011152715	-0.70967605	0.23947997	0.048979232	0.051845161	0.4376241	-0.11584863	-0.27557499	0.41789739	0.20519145	0.044985234	0.44449257	0.0089951422	-0.25886796	0.38498802	0.080433303	-0.14445142	0.80691454	-0.16362454	-0.22220603	0.80602728	0.20782646	-0.087171878	0.893669	-0.09067017	-0.10490653	0.8881437	0.14865264	-0.26511342	0.94395672	0.013953521	-0.12195632	1.338312	-0.1561624	-0.1610302	1.3556238	0.17576694	-0.20765281	1.3963237	0.0044950394	-0.26659771	0.99882756	-0.19925145	-0.2578601	0.99127725	0.25287596	-0.15379949	0.7653967	-0.24638445	-0.030864005	0.8321212	0.23613776
183	0.728	0.16940124	-0.0095550891	-0.010501045	-0.61101086	0.062732475	0.089930389	0.020618329	0.023241392	-0.054447007	-0.65993917	0.20890327	0.11623714	0.03789371	0.044926214	0.040530484	-0.60395093	0.20180556	0.034624737	-0.051338972	-0.011932418	-0.011526493	-0.69702121	0.2460352	0.049140432	0.057526125	0.43639955	-0.11600205	-0.26276375	0.41671974	0.20631862	0.051984259	0.44401869	0.0082103854	-0.24515498	0.38303428	0.081762256	-0.13842866	0.8072996	-0.16464986	-0.21478617	0.80531226	0.20728234	-0.080553644	0.89426994	-0.091661243	-0.09803743	0.88790818	0.14779246	-0.25843595	0.94237361	0.013363855	-0.11358059	1.3380029	-0.15637882	-0.1533052	1.3555189	0.17540643	-0.19986774	1.3961832	0.0041136328	-0.25796315	0.99847981	-0.19991076	-0.25244297	0.99187567	0.25165631	-0.1449917	0.76502038	-0.24650966	-0.026995178	0.8304998	0.23693346
184	0.732	0.16931693	-0.0096900054	-0.010366158	-0.60541144	0.065130791	0.090827601	0.020775784	0.022892546	-0.054616002	-0.64837365	0.21389629	0.1165657	0.037865615	0.044699435	0.040465388	-0.59224687	0.20496036	0.035233009	-0.051493244	-0.011936223	-0.011900893	-0.6839762	0.25237749	0.049224523	0.062523755	0.43497448	-0.11618799	-0.24977293	0.4155199	0.20735306	0.05856011	0.44288864	0.0075083964	-0.23154818	0.38132364	0.082811386	-0.13221637	0.80759781	-0.16548329	-0.20678624	0.80461642	0.20633717	-0.073951739	0.89494618	-0.092632412	-0.091270971	0.8877364	0.14701179	-0.25250549	0.94059326	0.011812615	-0.10520622	1.3377838	-0.15655653	-0.14545996	1.3554675	0.17506957	-0.19209251	1.396082	0.0037208027	-0.24928798	0.99820662	-0.2004938	-0.24706987	0.99256489	0.25045672	-0.13610323	0.76472397	-0.24659137	-0.023251212	0.82892447	0.23770463
185	0.736	0.1692194	-0.0097977388	-0.010266441	-0.59908688	0.06762832	0.091920247	0.020896244	0.022519206	-0.054758189	-0.63659831	0.21856101	0.11683252	0.037885968	0.044490403	0.040431965	-0.58031155	0.20807492	0.035795922	-0.051641329	-0.011956501	-0.012179876	-0.67065883	0.25855646	0.049375496	0.066925644	0.4334757	-0.11639746	-0.23661847	0.41429626	0.2083098	0.064778324	0.44126518	0.0068960811	-0.21802953	0.37989099	0.083607714	-0.12593785	0.80777232	-0.16605439	-0.19848716	0.80390561	0.20525562	-0.067350685	0.89565714	-0.093542532	-0.084607483	0.88763009	0.14632957	-0.2470792	0.93905467	0.0099268845	-0.096818504	1.3376469	-0.1566721	-0.13754997	1.3554726	0.17475303	-0.18435905	1.3960315	0.0033351109	-0.24057109	0.99801696	-0.20097211	-0.2417596	0.99333173	0.24938918	-0.12714094	0.76450122	-0.24661938	-0.01964639	0.82738656	0.23845502
186	0.74	0.16919231	-0.0098778315	-0.010174392	-0.59190841	0.070280645	0.09316399	0.021085648	0.022179583	-0.054793967	-0.6245852	0.22291002	0.11706618	0.038071794	0.044316755	0.0404802	-0.56815337	0.21118928	0.036303783	-0.051711987	-0.011906369	-0.012294411	-0.65714678	0.26459245	0.049704797	0.070925698	0.43199367	-0.11664814	-0.22328766	0.4130679	0.20911749	0.070684862	0.43933248	0.0063720126	-0.20453395	0.37875948	0.084188314	-0.11979561	0.80779192	-0.16639413	-0.19048261	0.80322423	0.20435602	-0.060758223	0.89635586	-0.094365444	-0.07805368	0.88759366	0.14575469	-0.24162303	0.93816375	0.0084679055	-0.088421948	1.3375837	-0.15672905	-0.12960461	1.3555242	0.17445893	-0.17668593	1.3960224	0.0029454707	-0.23182566	0.9979016	-0.20139219	-0.23655503	0.99415117	0.24854307	-0.11810213	0.76434332	-0.24658575	-0.016150956	0.82587814	0.23919541
187	0.744	0.16925551	-0.0099336645	-0.01009628	-0.5837292	0.073156924	0.094545527	0.021396079	0.021904017	-0.054730954	-0.61229682	0.22701238	0.11728116	0.038417075	0.044172352	0.040600787	-0.55574292	0.21434144	0.036740654	-0.051676454	-0.011769372	-0.012247381	-0.64348163	0.27037777	0.050216505	0.074654351	0.43060598	-0.11701246	-0.20978824	0.41186386	0.20969674	0.076235558	0.43725305	0.0059078784	-0.19102409	0.37793518	0.084576041	-0.11393634	0.80767829	-0.16659341	-0.183127	0.80263273	0.20376624	-0.054197375	0.89700509	-0.095100095	-0.071618214	0.88763724	0.14528563	-0.23577508	0.93817217	0.0077881346	-0.080042151	1.3375939	-0.15674899	-0.1216499	1.3556147	0.17420105	-0.16907406	1.3960736	0.0025486818	-0.22307665	0.99784336	-0.20183215	-0.23139475	0.99500142	0.247931	-0.1089838	0.76424445	-0.24648725	-0.012712053	0.82439926	0.23994103
188	0.748	0.16937254	-0.0099756258	-0.010057963	-0.57432829	0.076343142	0.096073078	0.021799776	0.021689181	-0.054634424	-0.59972108	0.23098993	0.1174598	0.038845473	0.044041618	0.040739894	-0.54309305	0.21759106	0.037078744	-0.051568353	-0.011585382	-0.012111759	-0.62974345	0.27569163	0.050785066	0.078172516	0.42933563	-0.11752264	-0.1961663	0.4107362	0.21003874	0.081338725	0.4351707	0.0054848498	-0.17752047	0.37741212	0.084758343	-0.10834116	0.80751712	-0.16674843	-0.17635207	0.8021393	0.20341486	-0.047689118	0.8975839	-0.095761129	-0.065307028	0.88777523	0.14490986	-0.22955479	0.93905316	0.0078352023	-0.071700318	1.3376807	-0.15674551	-0.11373137	1.3557542	0.17398924	-0.16150764	1.396248	0.0021609832	-0.21434731	0.99783171	-0.20234406	-0.22613007	0.9958885	0.24749544	-0.099788772	0.76420666	-0.24632468	-0.0092967368	0.82295084	0.24070189
189	0.752	0.16948162	-0.010014335	-0.010069327	-0.56349963	0.079877489	0.097753657	0.022217838	0.0215146	-0.054569947	-0.58686684	0.23496845	0.11757127	0.039259709	0.043914431	0.04084523	-0.53027249	0.2210164	0.037285856	-0.051459379	-0.011407907	-0.01197863	-0.61609569	0.2803731	0.051220852	0.081552527	0.42813252	-0.11808894	-0.1824704	0.40976898	0.21019255	0.085940919	0.43323892	0.0051314033	-0.16403067	0.37718863	0.084699692	-0.10283435	0.80741921	-0.16693513	-0.16994288	0.80173197	0.20318966	-0.041256477	0.89808488	-0.096369205	-0.059127404	0.88802266	0.14460256	-0.22288952	0.94028884	0.00814352	-0.063401193	1.3378473	-0.15671845	-0.10590162	1.3559633	0.17381458	-0.15396357	1.3965947	0.0017965998	-0.20564748	0.99786613	-0.20292592	-0.2206824	0.99684346	0.24714845	-0.090524934	0.76424271	-0.24610132	-0.0059058091	0.82153161	0.24147572
190	0.756	0.16953448	-0.010052587	-0.010111664	-0.55125093	0.083681984	0.099583177	0.022572335	0.021358553	-0.054565141	-0.57373529	0.23900924	0.11760834	0.039580048	0.043792951	0.040897723	-0.51733108	0.22465566	0.037341193	-0.051409092	-0.011273028	-0.011905398	-0.60269058	0.28442487	0.051399821	0.084874876	0.42693887	-0.118558	-0.16872063	0.40904999	0.21021107	0.090066998	0.43162079	0.0049187942	-0.15051387	0.37727059	0.084396083	-0.097196381	0.80746843	-0.16719824	-0.16373252	0.80142709	0.20302492	-0.034931364	0.89850737	-0.096946528	-0.053083885	0.88839123	0.14433411	-0.21555349	0.94115703	0.0080296036	-0.055144815	1.3380967	-0.15666391	-0.098199121	1.3562564	0.17365924	-0.14642557	1.3971034	0.0014560432	-0.19697614	0.99795044	-0.20354759	-0.21511559	0.99788851	0.24682843	-0.081202346	0.76437161	-0.24582	-0.0025531628	0.82014831	0.24225682
191	0.76	0.16951863	-0.010085784	-0.010155884	-0.53783563	0.087599671	0.10153566	0.022820549	0.021208777	-0.054607569	-0.560302	0.24306274	0.11760491	0.039774107	0.043686369	0.040908383	-0.50424208	0.2284342	0.037235538	-0.051434144	-0.011192957	-0.011899585	-0.58951916	0.28795134	0.051338565	0.088193993	0.42575488	-0.1188244	-0.15491417	0.40863676	0.2101242	0.093761915	0.4304344	0.0048988883	-0.13696461	0.37765734	0.083921757	-0.091297719	0.8076906	-0.16753757	-0.15753635	0.80125034	0.20286388	-0.028725986	0.89886014	-0.09750235	-0.047156917	0.88888436	0.14408567	-0.20790263	0.94145161	0.0072541721	-0.046934673	1.3384264	-0.15657815	-0.090648452	1.356635	0.17351456	-0.1388948	1.397732	0.0011368309	-0.18833417	0.99808701	-0.20419538	-0.20951695	0.99901992	0.24652824	-0.071829539	0.76460584	-0.24548217	0.00075315158	0.81881628	0.24304642
